<?xml version="1.0" encoding="UTF-8" standalone="no"?>
<!-- Generator: Adobe Illustrator 16.0.0, SVG Export Plug-In . SVG Version: 6.00 Build 0)  -->

<svg
   xmlns:dc="http://purl.org/dc/elements/1.1/"
   xmlns:cc="http://creativecommons.org/ns#"
   xmlns:rdf="http://www.w3.org/1999/02/22-rdf-syntax-ns#"
   xmlns:svg="http://www.w3.org/2000/svg"
   xmlns="http://www.w3.org/2000/svg"
   xmlns:sodipodi="http://sodipodi.sourceforge.net/DTD/sodipodi-0.dtd"
   xmlns:inkscape="http://www.inkscape.org/namespaces/inkscape"
   version="1.1"
   id="Layer_1"
   x="0px"
   y="0px"
   width="175.748"
   height="135.80699"
   viewBox="0 0 175.748 135.80699"
   enable-background="new 0 0 612 792"
   xml:space="preserve"
   inkscape:version="0.91 r13725"
   sodipodi:docname="logo.svg"><metadata
     id="metadata15"><rdf:RDF><cc:Work
         rdf:about=""><dc:format>image/svg+xml</dc:format><dc:type
           rdf:resource="http://purl.org/dc/dcmitype/StillImage" /></cc:Work></rdf:RDF></metadata><defs
     id="defs13" /><sodipodi:namedview
     pagecolor="#ffffff"
     bordercolor="#666666"
     borderopacity="1"
     objecttolerance="10"
     gridtolerance="10"
     guidetolerance="10"
     inkscape:pageopacity="0"
     inkscape:pageshadow="2"
     inkscape:window-width="1276"
     inkscape:window-height="755"
     id="namedview11"
     showgrid="false"
     fit-margin-top="0"
     fit-margin-left="0"
     fit-margin-right="0"
     fit-margin-bottom="0"
     inkscape:zoom="4.7676768"
     inkscape:cx="92.679146"
     inkscape:cy="63.553751"
     inkscape:window-x="0"
     inkscape:window-y="0"
     inkscape:window-maximized="1"
     inkscape:current-layer="Layer_1" /><polygon
     style="fill:#3765ac;fill-rule:evenodd;fill-opacity:1"
     id="polygon7"
     points="393.252,364.146 361.118,330.593 251.231,330.416 217.504,364.146 217.504,364.146 302.271,466.223 "
     clip-rule="evenodd"
     transform="translate(-217.504,-330.416)" /><path
     style="fill:#ffffff;fill-rule:evenodd;fill-opacity:1"
     inkscape:connector-curvature="0"
     id="path9"
     d="M 14.743,34.335 37.185,11.143 51.284,11.317 C 29.513,21.843 24.238,36.133 27.835,49.153 l -13.092,-14.818 0,0 z m 49.641,59.696 c 17.431,4.776 28.188,5.563 43.69,0.806 l -22.32,23.392 -21.37,-24.198 0,0 z M 34.816,60.515 53.01,80.947 c 2.764,-10.703 31.508,-4.161 34.03,4.604 12.048,3.964 32.579,-2.781 32.866,-9.063 C 119.85,61.335 49.879,73.907 34.816,60.515 l 0,0 z M 142.284,14.895 141.796,36.51 H 113.454 C 113.838,22.219 102.978,15.201 82.07,15.777 67.348,16.065 53.202,21.819 53.01,31.314 c 0,22.539 79.268,-1.822 85.598,29.636 l 22.988,-26.584 -19.312,-19.471 0,0 z m -33.712,-3.498 15.035,0.018 -3.295,11.19 c -2.771,-6.775 -7.436,-9.248 -11.74,-11.208 l 0,0 z"
     clip-rule="evenodd" /></svg>